{
    "accessors": {
        "accessor_buffer_mesh_id20_0": {
            "bufferView": "bufferView_buffer_mesh_id20_0",
            "byteOffset": 0,
            "byteStride": 32,
            "componentType": 5126,
            "count": 196,
            "max": [
                638.85009765625,
                145.3032684326172,
                50.0
            ],
            "min": [
                -638.85009765625,
                -145.3032684326172,
                -50.0
            ],
            "type": "VEC3"
        },
        "accessor_buffer_mesh_id20_1": {
            "bufferView": "bufferView_buffer_mesh_id20_0",
            "byteOffset": 12,
            "byteStride": 32,
            "componentType": 5126,
            "count": 196,
            "max": [
                1.0,
                0.9363319277763367,
                1.0
            ],
            "min": [
                -0.9998635053634644,
                -0.9999973773956299,
                -1.0
            ],
            "type": "VEC3"
        },
        "accessor_buffer_mesh_id20_2": {
            "bufferView": "bufferView_buffer_mesh_id20_0",
            "byteOffset": 24,
            "byteStride": 32,
            "componentType": 5126,
            "count": 196,
            "max": [
                0.9999999403953552,
                0.9999999403953552
            ],
            "min": [
                0.0009765625,
                0.0009765625
            ],
            "type": "VEC2"
        },
        "accessor_buffer_mesh_id20_3": {
            "bufferView": "bufferView_buffer_mesh_id20_1",
            "byteOffset": 0,
            "byteStride": 2,
            "componentType": 5123,
            "count": 372,
            "max": [
                195
            ],
            "min": [
                0
            ],
            "type": "SCALAR"
        }
    },
    "asset": {
        "profile": {
            "api": "WebGL",
            "version": "1.0.3"
        },
        "version": "1.0"
    },
    "bufferViews": {
        "bufferView_buffer_mesh_id20_0": {
            "buffer": "buffer_combined",
            "byteLength": 6272,
            "byteOffset": 0,
            "target": 34962
        },
        "bufferView_buffer_mesh_id20_1": {
            "buffer": "buffer_combined",
            "byteLength": 744,
            "byteOffset": 6272,
            "target": 34963
        }
    },
    "buffers": {
        "buffer_combined": {
            "byteLength": 7016,
            "type": "arraybuffer",
            "uri": "buffer_combined.bin"
        }
    },
    "cameras": {
        "camera_Camera": {
            "name": "Camera",
            "perspective": {
                "aspectRatio": 1.703595982340029,
                "yfov": 0.5033799409866333,
                "zfar": 100.0,
                "znear": 0.10000000149011612
            },
            "type": "perspective"
        }
    },
    "extensions": {
        "KHR_materials_common": {
            "lights": {
                "light_Lamp": {
                    "name": "Lamp",
                    "point": {
                        "color": [
                            1.0,
                            1.0,
                            1.0
                        ],
                        "constantAttenuation": 1,
                        "linearAttenuation": 0,
                        "quadraticAttenuation": 0.03333335240683057
                    },
                    "type": "point"
                }
            }
        }
    },
    "extensionsUsed": [
        "KHR_materials_common"
    ],
    "images": {
        "image_171.png": {
            "uri": "171.png.png"
        },
        "image_173.png": {
            "uri": "173.png.png"
        }
    },
    "materials": {
        "material_Material_5861647": {
            "extensions": {
                "KHR_materials_common": {
                    "technique": "PHONG",
                    "values": {
                        "ambient": [
                            1.0,
                            1.0,
                            1.0,
                            1.0
                        ],
                        "diffuse": "texture_171.png",
                        "doubleSided": false,
                        "emission": [
                            0.0,
                            0.0,
                            0.0,
                            1.0
                        ],
                        "shininess": 511,
                        "specular": "texture_173.png",
                        "transparency": 1.0,
                        "transparent": false
                    }
                }
            },
            "name": "Material_5861647"
        }
    },
    "meshes": {
        "mesh_mesh_id20": {
            "name": "mesh_id20",
            "primitives": [
                {
                    "attributes": {
                        "NORMAL": "accessor_buffer_mesh_id20_1",
                        "POSITION": "accessor_buffer_mesh_id20_0",
                        "TEXCOORD_0": "accessor_buffer_mesh_id20_2"
                    },
                    "indices": "accessor_buffer_mesh_id20_3",
                    "material": "material_Material_5861647",
                    "mode": 4
                }
            ]
        }
    },
    "nodes": {
        "node_Camera": {
            "camera": "camera_Camera",
            "children": [],
            "matrix": [
                0.6859206557273865,
                0.7276763319969177,
                0.0,
                0.0,
                -0.32401347160339355,
                0.305420845746994,
                0.8953956365585327,
                0.0,
                0.6515582203865051,
                -0.6141703724861145,
                0.44527140259742737,
                0.0,
                7.481131553649902,
                -6.5076398849487305,
                5.34366512298584,
                1.0
            ],
            "name": "Camera"
        },
        "node_Lamp": {
            "children": [],
            "extensions": {
                "KHR_materials_common": {
                    "light": "light_Lamp"
                }
            },
            "matrix": [
                -0.29086464643478394,
                0.9551711678504944,
                -0.05518905818462372,
                0.0,
                -0.7711008191108704,
                -0.1998833566904068,
                0.6045247316360474,
                0.0,
                0.5663931965827942,
                0.21839119493961334,
                0.7946722507476807,
                0.0,
                4.076245307922363,
                1.0054539442062378,
                5.903861999511719,
                1.0
            ],
            "name": "Lamp"
        },
        "node_mesh_id20": {
            "children": [],
            "matrix": [
                1.0,
                0.0,
                0.0,
                0.0,
                0.0,
                -1.6292068494294654e-07,
                1.0,
                0.0,
                0.0,
                -1.0,
                -1.6292068494294654e-07,
                0.0,
                11.624267578125,
                -200.0,
                -160.3179168701172,
                1.0
            ],
            "meshes": [
                "mesh_mesh_id20"
            ],
            "name": "mesh_id20"
        }
    },
    "samplers": {
        "sampler_default": {}
    },
    "scene": "scene_Scene",
    "scenes": {
        "scene_Scene": {
            "extras": {
                "active_camera": "camera_Camera",
                "background_color": [
                    0.05087608844041824,
                    0.05087608844041824,
                    0.05087608844041824
                ],
                "frames_per_second": 25
            },
            "name": "Scene",
            "nodes": [
                "node_mesh_id20",
                "node_Lamp",
                "node_Camera"
            ]
        }
    },
    "textures": {
        "texture_171.png": {
            "format": 6408,
            "internalFormat": 6408,
            "sampler": "sampler_default",
            "source": "image_171.png"
        },
        "texture_173.png": {
            "format": 6408,
            "internalFormat": 6408,
            "sampler": "sampler_default",
            "source": "image_173.png"
        }
    }
}
